<svg xmlns="http://www.w3.org/2000/svg" version="1.1" xmlns:xlink="http://www.w3.org/1999/xlink" width="512" height="512" x="0" y="0" viewBox="0 0 100 100" style="enable-background:new 0 0 512 512" xml:space="preserve" class=""><g><linearGradient id="a"><stop offset="0" stop-color="#97e0ff"></stop><stop offset="1" stop-color="#1075ff"></stop></linearGradient><linearGradient xlink:href="#a" id="b" x1="-15.67" x2="83.951" y1="4.708" y2="115.693" gradientUnits="userSpaceOnUse"></linearGradient><linearGradient xlink:href="#a" id="c" x1="12.037" x2="111.658" y1="-20.162" y2="90.823" gradientUnits="userSpaceOnUse"></linearGradient><linearGradient xlink:href="#a" id="d" x1="-1.816" x2="97.805" y1="-7.728" y2="103.257" gradientUnits="userSpaceOnUse"></linearGradient><path fill="url(#b)" d="M33.904 34.497a3.38 3.38 0 0 0-.99-2.39l-4.78-4.78a3.381 3.381 0 0 0-4.782 0L3.787 46.892a4.396 4.396 0 0 0 0 6.216l19.565 19.565a3.38 3.38 0 0 0 4.78.001l4.78-4.78a3.381 3.381 0 0 0 0-4.781L19.8 50l13.114-13.112a3.38 3.38 0 0 0 .99-2.391z" opacity="1" data-original="url(#b)"></path><path fill="url(#c)" d="M74.257 26.336c-.896 0-1.756.356-2.39.99l-4.78 4.78a3.381 3.381 0 0 0 0 4.781L80.2 50 67.086 63.112a3.38 3.38 0 0 0 0 4.78l4.78 4.78v.002a3.381 3.381 0 0 0 4.782 0l19.565-19.565a4.396 4.396 0 0 0 0-6.217L76.648 27.326a3.38 3.38 0 0 0-2.39-.99z" opacity="1" data-original="url(#c)"></path><path fill="url(#d)" d="M59.44 9.433h-6.483a3.378 3.378 0 0 0-3.334 2.825L37.227 86.63a3.377 3.377 0 0 0 3.335 3.937h6.482a3.377 3.377 0 0 0 3.335-2.825L62.774 13.37a3.379 3.379 0 0 0-3.334-3.937z" opacity="1" data-original="url(#d)"></path></g></svg>